# xmcd
#
# Track frame offsets:
#	150
#	19500
#	39456
#	61197
#	81897
#	103191
#	126290
#	145186
#	167239
#
# Disc length: 2485 seconds
#
# Revision: 1270956646
# Processed by: cddbd v1.5.2PL0 Copyright (c) Steve Scherf et al.
# Submitted via: EZCDAudioConverter 8.0.2.1
#
DISCID=7309b309
DTITLE=Nhật Tinh Anh - Không Gì Là Không Thể
DYEAR=2012
DGENRE=World Pop
TTITLE0=Nhật Tinh Anh - Anh vẫn như xưa
TTITLE1=Nhật Tinh Anh - Ở chân trời xa
TTITLE2=Nhật Tinh Anh - In sâu trong đáy tim
TTITLE3=Nhật Tinh Anh, Khánh Ngọc - Cho nhau lời yêu cuối
TTITLE4=Nhật Tinh Anh - Anh đã yêu em
TTITLE5=Nhật Tinh Anh - Đành quên dĩ vãng
TTITLE6=Nhật Tinh Anh, Khánh Ngọc - Yêu thương phai màu
TTITLE7=Nhật Tinh Anh - Người tôi thầm yêu
TTITLE8=Nhật Tinh Anh - Khép lại một giấc mơ
EXTD=
EXTT0=
EXTT1=
EXTT2=
EXTT3=
EXTT4=
EXTT5=
EXTT6=
EXTT7=
EXTT8=
PLAYORDER=
